<svg xmlns="http://www.w3.org/2000/svg" width="128" height="128" viewBox="0 0 128 128">
  <defs>
    <linearGradient id="g" x1="0" y1="0" x2="1" y2="1">
      <stop offset="0" stop-color="#3b82f6"/>
      <stop offset="1" stop-color="#06b6d4"/>
    </linearGradient>
  </defs>
  <rect x="12" y="12" width="104" height="104" rx="24" fill="url(#g)"/>
  <path d="M64 34c-8.8 0-16 7.2-16 16v14c0 8.8 7.2 16 16 16s16-7.2 16-16V50c0-8.8-7.2-16-16-16z"
        fill="#ffffff" opacity="0.95"/>
  <path d="M42 62a2 2 0 0 0-2 2c0 13.3 10.1 24.2 23 25.6V96h-9a2 2 0 0 0 0 4h20a2 2 0 0 0 0-4h-9v-6.4c12.9-1.4 23-12.3 23-25.6a2 2 0 1 0-4 0c0 11-9 20-20 20s-20-9-20-20a2 2 0 0 0-2-2z"
        fill="#ffffff" opacity="0.95"/>
</svg>
